<?xml version="1.0" encoding="utf-8"?>
<!-- Generator: Adobe Illustrator 23.0.6, SVG Export Plug-In . SVG Version: 6.00 Build 0)  -->
<svg version="1.1" id="Layer_1" xmlns="http://www.w3.org/2000/svg" xmlns:xlink="http://www.w3.org/1999/xlink" x="0px" y="0px"
	 viewBox="0 0 30 39" style="enable-background:new 0 0 30 39;" xml:space="preserve">
<style type="text/css">
	.st0{filter:url(#Adobe_OpacityMaskFilter);}
	.st1{fill-rule:evenodd;clip-rule:evenodd;fill:#FFFFFF;}
	.st2{mask:url(#mask-2_1_);fill-rule:evenodd;clip-rule:evenodd;}
	.st3{filter:url(#Adobe_OpacityMaskFilter_1_);}
	.st4{mask:url(#mask-2_2_);fill-rule:evenodd;clip-rule:evenodd;}
	.st5{filter:url(#Adobe_OpacityMaskFilter_2_);}
	.st6{mask:url(#mask-2_3_);fill-rule:evenodd;clip-rule:evenodd;}
	.st7{filter:url(#Adobe_OpacityMaskFilter_3_);}
	.st8{mask:url(#mask-2_4_);fill-rule:evenodd;clip-rule:evenodd;}
	.st9{filter:url(#Adobe_OpacityMaskFilter_4_);}
	.st10{mask:url(#mask-2_5_);fill-rule:evenodd;clip-rule:evenodd;}
</style>
<title>Group 7</title>
<desc>Created with Sketch.</desc>
<g id="Desktop">
	<g id="Nav" transform="translate(-105.000000, -32.000000)">
		<g id="Group-7" transform="translate(105.000000, 32.500000)">
			<g id="Clip-6">
			</g>
			<defs>
				<filter id="Adobe_OpacityMaskFilter" filterUnits="userSpaceOnUse" x="0" y="0.1" width="30" height="37.8">
					<feColorMatrix  type="matrix" values="1 0 0 0 0  0 1 0 0 0  0 0 1 0 0  0 0 0 1 0"/>
				</filter>
			</defs>
			<mask maskUnits="userSpaceOnUse" x="0" y="0.1" width="30" height="37.8" id="mask-2_1_">
				<g class="st0">
					<polygon id="path-1_1_" class="st1" points="0,0.1 30,0.1 30,37.9 0,37.9 					"/>
				</g>
			</mask>
			<path id="Fill-5" class="st2" d="M27.9,35.1c0,0.4-0.3,0.7-0.6,0.7H2.7c-0.4,0-0.6-0.3-0.6-0.7V2.9c0-0.4,0.3-0.7,0.6-0.7h14.7
				v7.9c0,1.5,1.2,2.8,2.7,2.8h7.7V35.1z M19.5,3.7l6.9,7h-6.3c-0.4,0-0.6-0.3-0.6-0.7V3.7z M18.9,0.1H2.7C1.2,0.1,0,1.3,0,2.9v32.2
				c0,1.5,1.2,2.8,2.7,2.8h24.5c1.5,0,2.7-1.3,2.7-2.8V11.4L18.9,0.1z"/>
			<defs>
				<filter id="Adobe_OpacityMaskFilter_1_" filterUnits="userSpaceOnUse" x="7" y="17" width="15" height="2">
					<feColorMatrix  type="matrix" values="1 0 0 0 0  0 1 0 0 0  0 0 1 0 0  0 0 0 1 0"/>
				</filter>
			</defs>
			<mask maskUnits="userSpaceOnUse" x="7" y="17" width="15" height="2" id="mask-2_2_">
				<g class="st3">
					<polygon id="path-1_2_" class="st1" points="0,0.1 30,0.1 30,37.9 0,37.9 					"/>
				</g>
			</mask>
			<polygon id="Fill-1" class="st4" points="7,19 22,19 22,17 7,17 			"/>
			<defs>
				<filter id="Adobe_OpacityMaskFilter_2_" filterUnits="userSpaceOnUse" x="7" y="22" width="15" height="2">
					<feColorMatrix  type="matrix" values="1 0 0 0 0  0 1 0 0 0  0 0 1 0 0  0 0 0 1 0"/>
				</filter>
			</defs>
			<mask maskUnits="userSpaceOnUse" x="7" y="22" width="15" height="2" id="mask-2_3_">
				<g class="st5">
					<polygon id="path-1_3_" class="st1" points="0,0.1 30,0.1 30,37.9 0,37.9 					"/>
				</g>
			</mask>
			<polygon id="Fill-2" class="st6" points="7,24 22,24 22,22 7,22 			"/>
			<defs>
				<filter id="Adobe_OpacityMaskFilter_3_" filterUnits="userSpaceOnUse" x="7" y="26" width="15" height="2">
					<feColorMatrix  type="matrix" values="1 0 0 0 0  0 1 0 0 0  0 0 1 0 0  0 0 0 1 0"/>
				</filter>
			</defs>
			<mask maskUnits="userSpaceOnUse" x="7" y="26" width="15" height="2" id="mask-2_4_">
				<g class="st7">
					<polygon id="path-1_4_" class="st1" points="0,0.1 30,0.1 30,37.9 0,37.9 					"/>
				</g>
			</mask>
			<polygon id="Fill-3" class="st8" points="7,28 22,28 22,26 7,26 			"/>
			<defs>
				<filter id="Adobe_OpacityMaskFilter_4_" filterUnits="userSpaceOnUse" x="7" y="30" width="11" height="2">
					<feColorMatrix  type="matrix" values="1 0 0 0 0  0 1 0 0 0  0 0 1 0 0  0 0 0 1 0"/>
				</filter>
			</defs>
			<mask maskUnits="userSpaceOnUse" x="7" y="30" width="11" height="2" id="mask-2_5_">
				<g class="st9">
					<polygon id="path-1_5_" class="st1" points="0,0.1 30,0.1 30,37.9 0,37.9 					"/>
				</g>
			</mask>
			<polygon id="Fill-4" class="st10" points="7,32 18,32 18,30 7,30 			"/>
		</g>
	</g>
</g>
</svg>
